<?xml version="1.0" standalone="no"?>
<!DOCTYPE svg PUBLIC "-//W3C//DTD SVG 20010904//EN"
 "http://www.w3.org/TR/2001/REC-SVG-20010904/DTD/svg10.dtd">
<svg version="1.0" xmlns="http://www.w3.org/2000/svg"
 width="280.000000pt" height="203.000000pt" viewBox="0 0 280.000000 203.000000"
 preserveAspectRatio="xMidYMid meet">
<metadata>
Created by potrace 1.16, written by Peter Selinger 2001-2019
</metadata>
<g transform="translate(0.000000,203.000000) scale(0.100000,-0.100000)"
fill="#000000" stroke="none">
<path d="M1053 1953 c-21 -8 -15 -50 12 -79 13 -14 22 -30 19 -35 -3 -5 0 -74
6 -155 6 -80 8 -149 5 -153 -12 -11 -33 30 -39 77 -4 26 -9 63 -12 84 l-5 36
-72 -19 c-181 -50 -420 -202 -638 -407 -77 -73 -181 -193 -192 -224 -11 -31
115 -192 273 -346 167 -163 347 -284 513 -344 l89 -32 -5 -180 c-3 -112 -2
-152 3 -106 4 41 8 106 9 144 1 50 4 67 14 63 94 -36 116 -40 138 -30 23 11
22 12 -7 7 -42 -8 -134 32 -134 57 0 14 7 19 25 19 14 0 25 -4 25 -10 0 -5 8
-10 18 -10 15 1 15 2 -2 15 -11 8 -30 15 -43 15 -23 0 -23 2 -18 58 3 31 10
149 16 262 6 113 14 246 18 295 l6 90 30 -3 30 -2 -27 15 c-19 11 -25 20 -21
35 5 20 33 28 33 9 0 -5 5 -7 11 -3 8 5 6 10 -6 16 -15 9 -14 13 12 42 l28 31
-31 -27 c-16 -16 -32 -28 -35 -28 -2 0 -6 74 -8 165 l-3 165 26 10 c47 18 60
67 59 220 0 74 -5 156 -11 182 -7 38 -6 48 5 52 30 12 89 5 119 -13 84 -51
134 -280 134 -615 0 -77 5 -181 10 -231 21 -189 40 -570 40 -812 0 -139 3
-253 8 -253 4 0 6 78 4 174 l-3 174 158 -1 c141 -2 166 1 233 22 148 46 298
134 425 250 168 153 325 377 325 465 0 93 -349 398 -625 547 -196 106 -326
127 -480 76 -82 -27 -94 -25 -95 15 0 44 -45 135 -86 175 -49 47 -92 60 -149
44 -29 -8 -44 -7 -66 4 -29 15 -45 17 -66 8z m727 -433 c0 -5 9 -10 19 -10 11
0 32 -11 48 -24 15 -12 34 -21 41 -18 13 4 45 -7 82 -29 8 -5 25 -13 37 -18
11 -6 24 -15 28 -21 3 -5 10 -8 14 -5 5 2 26 -10 47 -29 39 -32 229 -118 292
-131 23 -5 31 -10 24 -17 -7 -7 -45 3 -113 27 -57 20 -115 37 -129 37 -14 0
-30 4 -35 8 -6 5 -23 7 -38 6 -15 -2 -32 2 -37 9 -6 7 -36 23 -68 36 -31 12
-66 29 -78 36 -11 7 -23 11 -26 7 -3 -3 -30 10 -59 28 -53 32 -56 33 -174 33
-66 1 -126 4 -132 8 -7 5 -17 5 -23 2 -5 -3 -10 -2 -10 3 0 14 96 51 118 45
11 -2 23 0 26 6 9 13 76 15 76 2 0 -6 12 -3 28 5 32 17 42 18 42 4z m-731 -75
c10 3 22 1 26 -5 3 -5 -3 -10 -14 -10 -11 0 -23 -5 -26 -11 -4 -5 -12 -8 -18
-6 -7 2 -19 -1 -27 -8 -8 -7 -29 -15 -46 -18 -17 -3 -41 -10 -54 -17 -14 -8
-44 -10 -85 -5 -53 5 -63 3 -69 -11 -4 -10 -12 -14 -22 -10 -10 4 -30 -4 -50
-19 -18 -14 -36 -25 -39 -25 -4 0 -29 -16 -55 -35 -26 -19 -50 -32 -54 -28 -3
3 -17 -4 -31 -17 -14 -13 -28 -20 -31 -17 -10 10 68 78 83 73 7 -3 13 1 13 10
0 8 15 24 33 34 19 11 39 32 46 46 7 17 17 24 26 20 8 -3 15 -1 15 4 0 5 23
21 51 35 58 29 105 27 135 -6 23 -25 36 -24 32 3 -3 19 2 22 29 24 18 1 38 -5
44 -12 10 -12 14 -11 26 6 12 16 18 18 28 10 8 -7 23 -9 34 -5z m595 -285 c39
-6 72 -12 74 -15 3 -2 -2 -30 -9 -62 -18 -74 -34 -83 -160 -83 -111 0 -109 -3
-109 108 l0 62 68 0 c37 0 98 -5 136 -10z m-919 -377 c-2 -6 6 -13 18 -15 15
-2 24 -12 28 -33 4 -16 7 -22 8 -12 1 18 14 20 46 8 13 -5 28 -2 45 10 29 21
75 29 75 13 0 -12 54 -64 66 -64 5 0 9 -20 9 -45 0 -38 -3 -45 -19 -45 -11 0
-26 -3 -35 -6 -11 -4 -16 0 -16 11 0 26 -31 45 -53 34 -13 -7 -19 -6 -24 6 -4
11 -13 15 -29 11 -24 -6 -120 36 -126 55 -2 6 -16 12 -30 12 -18 1 -32 11 -40
27 -7 14 -18 32 -26 42 -14 17 -1 35 17 23 5 -3 12 -1 15 4 8 12 76 -22 71
-36z m1067 -102 c43 -22 43 -39 0 -47 -20 -3 -42 -12 -48 -20 -17 -22 -82 -46
-89 -33 -5 7 -11 7 -20 -1 -7 -6 -19 -8 -28 -4 -8 3 -18 1 -21 -4 -11 -18 -40
-1 -73 41 -37 48 -36 63 1 21 l25 -29 1 32 c0 21 4 31 13 29 49 -16 67 -16 67
-1 0 11 4 13 13 8 6 -4 31 -8 55 -9 33 -2 44 2 53 17 6 11 13 19 17 17 4 -2
19 -10 34 -17z"/>
</g>
</svg>
