<?xml version="1.0" encoding="iso-8859-1"?>
<!-- Generator: Adobe Illustrator 16.0.0, SVG Export Plug-In . SVG Version: 6.00 Build 0)  -->
<!DOCTYPE svg PUBLIC "-//W3C//DTD SVG 1.1//EN" "http://www.w3.org/Graphics/SVG/1.1/DTD/svg11.dtd">
<svg version="1.1" id="Capa_1" xmlns="http://www.w3.org/2000/svg" xmlns:xlink="http://www.w3.org/1999/xlink" x="0px" y="0px"
	 width="612px" height="612px" viewBox="0 0 612 612" style="enable-background:new 0 0 612 612;" xml:space="preserve">
<g>
	<g id="Facebook_1_">
		<g>
			<path d="M535.5,0h-459C34.234,0,0,34.234,0,76.5v459C0,577.767,34.234,612,76.5,612h459c42.267,0,76.5-34.233,76.5-76.5v-459
				C612,34.234,577.767,0,535.5,0z M535.5,497.25c0,21.114-17.136,38.25-38.25,38.25h-382.5c-21.114,0-38.25-17.136-38.25-38.25
				v-382.5c0-21.114,17.136-38.25,38.25-38.25h382.5c21.114,0,38.25,17.136,38.25,38.25V497.25z M306,229.5v38.25h-38.25v76.5H306
				V459h76.5V344.25h38.25v-76.5H382.5V229.5h38.25V153h-43.72C340.884,153,306,187.31,306,229.5z"/>
		</g>
	</g>
</g>
<g>
</g>
<g>
</g>
<g>
</g>
<g>
</g>
<g>
</g>
<g>
</g>
<g>
</g>
<g>
</g>
<g>
</g>
<g>
</g>
<g>
</g>
<g>
</g>
<g>
</g>
<g>
</g>
<g>
</g>
</svg>
